# xmcd
# 
# Track frame offsets:
#     150
#     10494
#     23367
#     33151
#     43635
#     54392
#     62376
#     72256
#     82482
#     91802
#     101279
#     111802
#     122687
#     133054
#     142573
#     154294
#     162596
#     174416
#     185714
#     194381
# 
# Disc length: 2793
# 
# Revision: 1
# Processed by: cddbd v1.5.2PL0 Copyright (c) Steve Scherf et al.
# Submitted via: fre:ac v1.1beta1pre5
# 
DISCID=060ae714
DTITLE=Various Artist - The Ultimate Doo-Wop Collection [CD1)
DYEAR=2016
DGENRE=Doo-Wop
TTITLE0=Frankie Lymon and The Teenagers - Why Do Fools Fall In Love
TTITLE1=Curtis Lee - Under The Moon Of Love
TTITLE2=Diamonds - Little Darlin'
TTITLE3=Marcels - Blue Moon
TTITLE4=Thurston Harris - Little Bitty Pretty One
TTITLE5=Earls - Life Is But A Dream
TTITLE6=Medallions - Speedin'
TTITLE7=Videls - A Letter From Ann
TTITLE8=Velvets - Tonight (Could Be The Night)
TTITLE9=Monarchs - Pretty Little Girl
TTITLE10=Larry Tamblyn - This Is The Night
TTITLE11=Dion - The Majestic
TTITLE12=Enchords - I Need You Baby
TTITLE13=Del-Satins - Does My Love Stand A Chance
TTITLE14=El Dorados - At My Front Door
TTITLE15=Cleftones - Heart And Soul
TTITLE16=Duprees - You Belong To Me
TTITLE17=Marc Cavell and The Class Mates - I Didn't Lie
TTITLE18=Dories - Breakup
TTITLE19=Little Caeser and The Romans - Those Oldies But Goodies (Remind Me Of You)
EXTD=
EXTT0=
EXTT1=
EXTT2=
EXTT3=
EXTT4=
EXTT5=
EXTT6=
EXTT7=
EXTT8=
EXTT9=
EXTT10=
EXTT11=
EXTT12=
EXTT13=
EXTT14=
EXTT15=
EXTT16=
EXTT17=
EXTT18=
EXTT19=
PLAYORDER=
